<svg width="242" height="79" viewBox="0 0 242 79" fill="none" xmlns="http://www.w3.org/2000/svg">
<rect x="1" y="2" width="240" height="76" fill="white"/>
<rect x="1" y="2" width="240" height="76" stroke="black"/>
<path d="M5.82422 6.36719C4.10547 6.36719 2.77734 5.01953 2.77734 3.39844C2.77734 1.77734 4.10547 0.429688 5.82422 0.429688C7.54297 0.429688 8.87109 1.77734 8.87109 3.39844C8.87109 5.01953 7.54297 6.36719 5.82422 6.36719ZM2.97266 30V9.0625H8.67578V30H2.97266ZM12.6992 30V1.81641H18.4023V17.4414H18.5195L25.5898 9.0625H32.0547L24.1445 18.0664L32.4453 30H25.8633L19.8672 21.4453L18.4023 23.0664V30H12.6992ZM40.1406 30.332C35.9414 30.332 33.1094 27.6953 33.1094 24.0039V23.9648C33.1094 20.1562 36.0586 17.9297 41.2539 17.5977L46.4297 17.2852V15.9961C46.4297 14.1406 45.2188 12.9883 42.9922 12.9883C40.8633 12.9883 39.5742 13.9844 39.3008 15.332L39.2617 15.5078H34.0469L34.0664 15.2734C34.3789 11.4062 37.6992 8.63281 43.2266 8.63281C48.6367 8.63281 52.1328 11.4258 52.1328 15.6445V30H46.4297V26.875H46.3125C45.1211 29.0234 42.8945 30.332 40.1406 30.332ZM38.7539 23.7109C38.7539 25.2539 40.0234 26.1719 41.9961 26.1719C44.5547 26.1719 46.4297 24.5312 46.4297 22.3438V20.8398L42.1133 21.1133C39.9062 21.25 38.7539 22.1875 38.7539 23.6719V23.7109ZM56.0195 30V1.81641H61.7227V17.4414H61.8398L68.9102 9.0625H75.375L67.4648 18.0664L75.7656 30H69.1836L63.1875 21.4453L61.7227 23.0664V30H56.0195ZM77.3477 36.8359V9.0625H83.0508V12.7148H83.1875C84.3203 10.1758 86.6055 8.63281 89.5742 8.63281C94.8867 8.63281 98.1289 12.6953 98.1289 19.5117V19.5312C98.1289 26.3281 94.8867 30.4297 89.6523 30.4297C86.6641 30.4297 84.3008 28.9062 83.168 26.4258H83.0508V36.8359H77.3477ZM87.6992 25.7031C90.5312 25.7031 92.3281 23.3398 92.3281 19.5312V19.5117C92.3281 15.6836 90.5312 13.3594 87.6992 13.3594C84.9258 13.3594 83.0312 15.7422 83.0312 19.5312V19.5508C83.0312 23.3203 84.9258 25.7031 87.6992 25.7031ZM101.098 30V9.0625H106.801V12.7148H106.918C107.543 10.1367 109.242 8.63281 111.684 8.63281C112.309 8.63281 112.895 8.73047 113.324 8.84766V13.8672C112.855 13.6719 112.074 13.5547 111.254 13.5547C108.441 13.5547 106.801 15.2344 106.801 18.2812V30H101.098ZM124.574 30.4297C118.207 30.4297 114.203 26.3477 114.203 19.5312V19.4922C114.203 12.7539 118.305 8.63281 124.555 8.63281C130.824 8.63281 134.945 12.7148 134.945 19.4922V19.5312C134.945 26.3672 130.902 30.4297 124.574 30.4297ZM124.594 25.957C127.367 25.957 129.145 23.6133 129.145 19.5312V19.4922C129.145 15.4492 127.328 13.1055 124.555 13.1055C121.801 13.1055 120.004 15.4492 120.004 19.4922V19.5312C120.004 23.6328 121.781 25.957 124.594 25.957ZM146.508 30.4297C140.707 30.4297 137.484 27.7539 137.035 23.7891L137.016 23.6133H142.582L142.621 23.7891C142.992 25.4297 144.223 26.3867 146.508 26.3867C148.656 26.3867 149.965 25.5469 149.965 24.1992V24.1797C149.965 23.0664 149.262 22.4219 147.211 21.9727L143.656 21.2305C139.594 20.3711 137.543 18.3398 137.543 15.2148V15.1953C137.543 11.2109 140.98 8.63281 146.312 8.63281C151.879 8.63281 154.984 11.582 155.121 15.2539V15.4492H149.867L149.848 15.293C149.652 13.7891 148.422 12.6562 146.312 12.6562C144.34 12.6562 143.109 13.5352 143.109 14.8828V14.9023C143.109 15.9766 143.832 16.6797 145.941 17.1289L149.496 17.8906C153.871 18.8086 155.668 20.5273 155.668 23.6133V23.6328C155.668 27.7344 151.898 30.4297 146.508 30.4297ZM166.801 30.4297C162.152 30.4297 159.965 28.6328 159.965 24.1406V13.3594H157.055V9.0625H159.965V3.94531H165.727V9.0625H169.555V13.3594H165.727V23.5156C165.727 25.4688 166.605 26.1328 168.324 26.1328C168.832 26.1328 169.203 26.0742 169.555 26.0352V30.2148C168.91 30.3125 167.992 30.4297 166.801 30.4297ZM181.996 30.4297C175.629 30.4297 171.625 26.3477 171.625 19.5312V19.4922C171.625 12.7539 175.727 8.63281 181.977 8.63281C188.246 8.63281 192.367 12.7148 192.367 19.4922V19.5312C192.367 26.3672 188.324 30.4297 181.996 30.4297ZM182.016 25.957C184.789 25.957 186.566 23.6133 186.566 19.5312V19.4922C186.566 15.4492 184.75 13.1055 181.977 13.1055C179.223 13.1055 177.426 15.4492 177.426 19.4922V19.5312C177.426 23.6328 179.203 25.957 182.016 25.957ZM197.699 30.332C195.922 30.332 194.535 28.9258 194.535 27.168C194.535 25.3906 195.922 24.0039 197.699 24.0039C199.457 24.0039 200.863 25.3906 200.863 27.168C200.863 28.9258 199.457 30.332 197.699 30.332ZM204.379 30V9.0625H210.082V12.7148H210.199C210.824 10.1367 212.523 8.63281 214.965 8.63281C215.59 8.63281 216.176 8.73047 216.605 8.84766V13.8672C216.137 13.6719 215.355 13.5547 214.535 13.5547C211.723 13.5547 210.082 15.2344 210.082 18.2812V30H204.379ZM226.078 30.4297C221.469 30.4297 218.852 27.4805 218.852 22.5781V9.0625H224.555V21.3867C224.555 24.1211 225.844 25.7031 228.402 25.7031C230.961 25.7031 232.582 23.8281 232.582 21.0938V9.0625H238.285V30H232.582V26.543H232.465C231.391 28.9453 229.242 30.4297 226.078 30.4297Z" fill="#FF6B00"/>
</svg>
